inDegrees=no
num_controls=7
num_derivatives=13
num_iterations=122
num_multipliers=7
num_parameters=0
num_slacks=7
num_states=26
objective=0.431096
objective_accelerations=0.050294
objective_balance=0.006887
objective_effort=0.031287
objective_height=0.341466
objective_ligament=0.001162
solver_duration=1737.525858
status=Solve_Succeeded
success=true
DataType=double
version=3
OpenSimVersion=4.5
endheader
time	/jointset/ground_pelvis/pelvis_tilt/value	/jointset/ground_pelvis/pelvis_tx/value	/jointset/ground_pelvis/pelvis_ty/value	/jointset/hip_l/hip_flexion_l/value	/jointset/hip_l/hip_adduction_l/value	/jointset/hip_l/hip_rotation_l/value	/jointset/back/lumbar_extension/value	/jointset/patellofemoral_l/patellar_flexion_l/value	/jointset/knee_l/knee_flexion_l/value	/jointset/knee_l/knee_adduction_l/value	/jointset/knee_l/knee_rotation_l/value	/jointset/ankle_l/ankle_angle_l/value	/jointset/subtalar_l/subtalar_angle_l/value	/jointset/ground_pelvis/pelvis_tilt/speed	/jointset/ground_pelvis/pelvis_tx/speed	/jointset/ground_pelvis/pelvis_ty/speed	/jointset/hip_l/hip_flexion_l/speed	/jointset/hip_l/hip_adduction_l/speed	/jointset/hip_l/hip_rotation_l/speed	/jointset/back/lumbar_extension/speed	/jointset/patellofemoral_l/patellar_flexion_l/speed	/jointset/knee_l/knee_flexion_l/speed	/jointset/knee_l/knee_adduction_l/speed	/jointset/knee_l/knee_rotation_l/speed	/jointset/ankle_l/ankle_angle_l/speed	/jointset/subtalar_l/subtalar_angle_l/speed	/forceset/tau_hip_flexion_l	/forceset/tau_hip_adduction_l	/forceset/tau_hip_rotation_l	/forceset/tau_knee_flexion_l	/forceset/tau_ankle_angle_l	/forceset/tau_subtalar_angle_l	/forceset/tau_lumbar_extension	lambda_cid13_p0	lambda_cid13_p1	lambda_cid13_p2	lambda_cid13_p3	lambda_cid13_p4	lambda_cid13_p5	lambda_cid14_p0	/jointset/ground_pelvis/pelvis_tilt/accel	/jointset/ground_pelvis/pelvis_tx/accel	/jointset/ground_pelvis/pelvis_ty/accel	/jointset/hip_l/hip_flexion_l/accel	/jointset/hip_l/hip_adduction_l/accel	/jointset/hip_l/hip_rotation_l/accel	/jointset/back/lumbar_extension/accel	/jointset/patellofemoral_l/patellar_flexion_l/accel	/jointset/knee_l/knee_flexion_l/accel	/jointset/knee_l/knee_adduction_l/accel	/jointset/knee_l/knee_rotation_l/accel	/jointset/ankle_l/ankle_angle_l/accel	/jointset/subtalar_l/subtalar_angle_l/accel	gamma_cid13_p0	gamma_cid13_p1	gamma_cid13_p2	gamma_cid13_p3	gamma_cid13_p4	gamma_cid13_p5	gamma_cid14_p0
0.5	-0.3318106806334082	-0.02996377058146564	0.7670945590610222	1.162009045199613	-0.3052229643866294	0.008633800128095179	-0.3219367755738269	0.812136738599568	0.8121367385998913	-0.1734158290303303	0.1676929967730341	0.1631523905989871	-0.0197828256528546	-0.4307554156182215	-0.16496822515248	-0.5076899948020082	2.119751549779852	0.01097109390184903	0.7038363840849128	-0.6301731145261003	2.108692155431328	2.108692155431396	-0.006374975281373155	0.04091954484246076	0.5434112853536882	0.1012448450854679	-0.1865703995592596	0.01997019947638558	-0.0262300946789418	-0.2569422327864434	0.1001087833393827	0.03784921297309247	0.1858769980530149	-5.979777552543787	-18.11381073221102	5.59563973015905	-1.602808011720495	-604.5683877896978	-58.97041617161287	-20.79625843373203	0.498057059269471	0.5530043370655187	-0.4318908543856187	-1.31312175512918	0.6923886276178991	-0.3731407840984037	1.653945613708922	-1.356761613061462	-1.356761613061459	0.05706881482117825	-0.08709323576907899	-0.5613769954579185	0.7120606191003533	-4.273939199993039e-07	-4.831235988215491e-07	2.623132837018903e-06	2.835772680335294e-07	-5.101178474292268e-07	-2.959172022323905e-07	-4.149922154307654e-07
0.51	-0.3360924320708288	-0.03158563632815476	0.7619971573605914	1.18313737071547	-0.3050801327119363	0.01565469237885905	-0.3281555156040838	0.8331523004262815	0.8331523004266077	-0.1734803181431795	0.1680974391152442	0.1685570193368015	-0.01873653474408741	-0.4255443402694333	-0.1593942196242283	-0.5116809430747239	2.105635398069526	0.01756904508987523	0.7002530366311254	-0.6135062399104695	2.094128659971087	2.094128659971166	-0.006514232594987735	0.03996457358675393	0.5374208045058724	0.1079881699166251	-0.1927907433014181	0.02029717357435648	-0.02629857444809319	-0.2598232893178637	0.09847815891458567	0.03798244525450701	0.1910809601631432	-6.73683483768531	-17.93952460897495	5.454092874862781	-1.285686395888641	-608.9501715265579	-58.69769877877656	-19.50842233214856	0.5401778893883992	0.5612602593133973	-0.3663839997822497	-1.502632088690719	0.6392289719279022	-0.3646434049467109	1.683356127711929	-1.54979579088665	-1.549795790884971	-0.04810742548419034	-0.1008573358753805	-0.6319160664270499	0.6514609885710611	-3.939427873089288e-07	-3.746589273941583e-07	2.499875602648608e-06	2.77197742764831e-07	-4.704255501869834e-07	-1.991880818143533e-07	-3.88375306329245e-07
0.52	-0.3403205637314206	-0.03315142969983968	0.7568631087402199	1.204116180672281	-0.3048721754038564	0.02263700881929929	-0.3342055273397402	0.8540134968427161	0.8540134968430457	-0.1735459367133714	0.1684921000918168	0.1738989367787409	-0.01762361207231911	-0.4200314602524485	-0.1537537501516412	-0.5150193787901446	2.089848437970941	0.02399622057921817	0.696121222020226	-0.5964274556059671	2.077819073375595	2.077819073375685	-0.006600866749858963	0.0389632717148912	0.5308690261787115	0.1145711976856885	-0.1990110870435765	0.02062414767232714	-0.02636705421723684	-0.2627043458492849	0.0968475344897886	0.03811567753592127	0.1962849222732716	-7.499141812424596	-17.76623391805967	5.314893607703006	-0.9821842798802446	-613.4352425288724	-58.50929146794821	-18.21973662558709	0.5584179929087777	0.5662971259325896	-0.3013883429266123	-1.647283432781305	0.6582334878812439	-0.4828342155207903	1.736327551483267	-1.705979840111856	-1.705979840111857	0.06759344656984888	-0.09635935900026306	-0.6736364913269318	0.6800012066815811	-3.626338269686675e-07	-2.707819895029617e-07	2.382297501282852e-06	2.724003686190859e-07	-4.357515905968666e-07	-1.092984686337413e-07	-3.627404178230572e-07
0.53	-0.3444921633658855	-0.0346605385711933	0.7516989532069257	1.224929064851006	-0.3046007189060056	0.0295753689905548	-0.3400827618946437	0.8747031739859157	0.874703173986206	-0.1736119590996546	0.1688764748217591	0.1791727204614865	-0.01644556032805355	-0.4142409235632349	-0.1480614505432627	-0.5177000106349646	2.072462101862434	0.03025854267081884	0.6914715452482117	-0.5789648860975843	2.059844182358848	2.059844182358956	-0.006607139041816215	0.03791101916574703	0.5238054305471773	0.1210022899836556	-0.2050594964214977	0.02077455030573831	-0.0263740781350036	-0.2656773126480966	0.09538703666625972	0.03808105771145818	0.2013266800513215	-8.208045385803203	-17.5221048298463	5.156071068367281	-0.6864610797610201	-617.8563010833144	-58.23240970036181	-16.93332782788975	0.5964754425990665	0.5717363907723597	-0.2347265280019844	-1.824291422128679	0.6044267863381292	-0.4682283420679206	1.759407042088141	-1.883999813151976	-1.883999813149396	-0.03523189510719679	-0.1102171637052566	-0.7350411307167964	0.6188958109148653	-3.320252272878083e-07	-1.710433241615595e-07	2.265351310834408e-06	2.678547001182316e-07	-4.031767145092613e-07	-2.470986070933132e-08	-3.373372135869025e-07
0.54	-0.3486044368463241	-0.03611251644396675	0.746511326170635	1.245560089124198	-0.3042678001439308	0.03646479360728457	-0.345783733676149	0.8952049510028087	0.89520495100306	-0.1736781430744634	0.169250215234043	0.1843734041815868	-0.0152043511468962	-0.4081662294471647	-0.1423275504356098	-0.519713679389475	2.053476456864191	0.03628867342396546	0.6863341111151499	-0.5611749009263066	2.040239048114265	2.04023904811439	-0.006633184454920863	0.0368364081832523	0.5162490336496374	0.1272026850640458	-0.211107905799419	0.02092495293914903	-0.02638110205276843	-0.2686502794469086	0.09392653884273068	0.03804643788699456	0.2063684378293714	-8.922496240336036	-17.27818682573418	4.998634545034927	-0.4017778143186056	-622.3813644735155	-58.03130327112528	-15.65392360859824	0.6152494782800738	0.5746172257874453	-0.1679957248646566	-1.967145210728751	0.6117952201904338	-0.5803856877303654	1.801810684062272	-2.032028485679144	-2.032028485679106	0.0636388223403699	-0.1008310456703765	-0.7721967445281095	0.6338617631661879	-3.021914947194794e-07	-7.588317313056826e-08	2.149104255868947e-06	2.635875144585332e-07	-3.72924228679754e-07	5.401380522949328e-08	-3.121903408835503e-07
